<?xml version="1.0" encoding="UTF-8"?>
<svg width="60px" height="59.9626667px" viewBox="0 0 60 59.9626667" version="1.1" xmlns="http://www.w3.org/2000/svg" xmlns:xlink="http://www.w3.org/1999/xlink">
    <title>44DD02AD-CF8B-4C47-98DE-83ADE9FD0985</title>
    <g id="Page-1" stroke="none" stroke-width="1" fill="none" fill-rule="evenodd" stroke-linecap="round" stroke-linejoin="round">
        <g id="Mentoring" transform="translate(-253.9973, -1166.0187)" stroke="#373535" stroke-width="5.5">
            <g id="human-resources-search-employees.1" transform="translate(253.9973, 1166.0187)">
                <path d="M0,59.9626667 C0.00875964484,57.1054993 0.599434432,54.2800596 1.736,51.6586667 C2.98933333,49.2053333 8.21866667,47.504 14.7866667,45.1226667 C16.5626667,44.48 16.2693333,39.9413333 15.4826667,39.0933333 C12.9604346,36.4272696 11.7164876,32.7994959 12.072,29.1466667 C11.7148125,24.6495952 14.919653,20.6514312 19.3866667,20.0213333" id="Path"></path>
                <path d="M28.4026667,32.8986667 C28.0454195,35.2420175 26.9528608,37.4112601 25.2826667,39.0933333 C24.496,39.9413333 24.216,44.48 25.9813333,45.1226667 C32.5466667,47.504 37.7786667,49.2053333 39.0293333,51.6586667 C40.1699545,54.2802847 40.7738357,57.1038372 40.8053333,59.9626667" id="Path"></path>
                <path d="M49.648,59.9626667 L55.9626667,59.9626667 L55.9626667,57.784 C55.9626667,50.0666667 50.6293333,48.8213333 45.2773333,46.8506667 C43.504,46.192 43.7946667,41.56 44.5813333,40.696 C46.3729011,38.8460747 47.4986024,36.4530212 47.7813333,33.8933333" id="Path"></path>
                <circle id="Oval" cx="40" cy="14" r="14"></circle>
                <line x1="60" y1="34" x2="49.8986667" y2="23.8986667" id="Path"></line>
            </g>
        </g>
    </g>
</svg>