<svg xmlns="http://www.w3.org/2000/svg" width="22" height="22" viewBox="0 0 22 22" fill="none">
<path d="M21.9941 21.9999V21.999H21.9996V13.9306C21.9996 9.98345 21.1499 6.9429 16.5355 6.9429C14.3172 6.9429 12.8285 8.16022 12.2208 9.31429H12.1566V7.31139H7.78146V21.999H12.3372V14.7262C12.3372 12.8113 12.7002 10.9597 15.0716 10.9597C17.4081 10.9597 17.443 13.145 17.443 14.8491V21.9999H21.9941Z" fill="#000"/>
<path d="M0.362845 7.31174H4.9241V21.9993H0.362845V7.31174Z" fill="#000"/>
<path d="M2.64179 0C1.1834 0 0 1.1834 0 2.64181C0 4.10021 1.1834 5.30836 2.64179 5.30836C4.10018 5.30836 5.28357 4.10021 5.28357 2.64181C5.28266 1.1834 4.09926 0 2.64179 0V0Z" fill="#000"/>
</svg>