<svg xmlns="http://www.w3.org/2000/svg" xmlns:xlink="http://www.w3.org/1999/xlink" version="1.1" x="0px" y="0px" viewBox="0 0 256 256" enable-background="new 0 0 256 256" xml:space="preserve">
<g><g><path fill="#ccc" d="M122.2,43.1l-2.4,26c-42.1,9.3-63.2,26.6-63.2,52c0,7.3,6.8,15.1,20.3,23.6c13.3,8.5,20,19,20,31.5c0,11.1-3.5,20-10.6,26.6c-7.1,6.6-16.3,10-27.8,10c-13.5,0-25-4.7-34.3-14.1C14.7,189.4,10,177.2,10,162c0-29.8,9.6-55.2,28.7-76.2C57.9,64.8,85.7,50.6,122.2,43.1 M246,43.1l-2.4,26c-42.2,9.5-63.2,26.8-63.2,52c0,7.3,6.7,15.1,20.3,23.6c13.3,8.5,20,19,20,31.5c0,11.1-3.5,20-10.4,26.6c-7,6.6-16.3,10-28,10c-13.7,0-25.2-4.7-34.3-14.1c-9.2-9.4-13.8-21.6-13.8-36.8c0-30.2,9.6-55.8,28.8-76.7C182,64.4,209.7,50.4,246,43.1"/></g></g>
</svg>