<svg xmlns="http://www.w3.org/2000/svg" width="23" height="18" viewBox="0 0 23 18" fill="none">
<path d="M22.1538 2.13093C21.3299 2.49232 20.4521 2.73186 19.5369 2.84817C20.4784 2.28601 21.197 1.40262 21.5349 0.337848C20.657 0.861235 19.6878 1.23093 18.6549 1.43724C17.8213 0.549695 16.6333 0 15.3373 0C12.8229 0 10.7986 2.04093 10.7986 4.54294C10.7986 4.90295 10.829 5.2491 10.9038 5.57864C7.12798 5.39449 3.78691 3.58479 1.54246 0.828004C1.15061 1.50785 0.920767 2.28601 0.920767 3.12371C0.920767 4.69664 1.73076 6.09095 2.93815 6.89819C2.20846 6.88434 1.49261 6.67249 0.886151 6.3388C0.886151 6.35264 0.886151 6.37064 0.886151 6.38864C0.886151 8.59573 2.46045 10.429 4.52491 10.8513C4.15522 10.9524 3.7523 11.0008 3.33414 11.0008C3.04338 11.0008 2.74984 10.9842 2.4743 10.9233C3.06276 12.7219 4.7326 14.0442 6.71814 14.0871C5.17291 15.2959 3.21091 16.0242 1.08692 16.0242C0.71446 16.0242 0.35723 16.0076 0 15.9619C2.01184 17.2593 4.39614 18.0001 6.96737 18.0001C15.3249 18.0001 19.8941 11.077 19.8941 5.07602C19.8941 4.87525 19.8872 4.68141 19.8775 4.48894C20.7789 3.84925 21.5363 3.05032 22.1538 2.13093Z" fill="#000"/>
</svg>